<svg xmlns="http://www.w3.org/2000/svg" style="display:none" aria-hidden="true">
  <!-- =====================================================================
       PLUG icon sprite — 24x24 viewBox, stroke-based (2px, round caps).
       Icons render via: <svg class="icon"><use href="icons/sprite.svg#ID"/></svg>
       Color comes from currentColor; sizing from .icon classes.
       To add an icon: append a <symbol> with a unique id and a 24x24 viewBox,
       keep fill="none" stroke geometry, then document it in
       docs/04-design/COMPONENT_LIBRARY.md.
       ===================================================================== -->

  <symbol id="plug" viewBox="0 0 24 24">
    <path d="M12 22v-5"/>
    <path d="M9 8V2"/>
    <path d="M15 8V2"/>
    <path d="M18 8v5a4 4 0 0 1-4 4h-4a4 4 0 0 1-4-4V8Z"/>
  </symbol>

  <symbol id="bolt" viewBox="0 0 24 24">
    <path d="M13 2 3 14h9l-1 8 10-12h-9l1-8z"/>
  </symbol>

  <symbol id="pin" viewBox="0 0 24 24">
    <path d="M20 10c0 6-8 12-8 12s-8-6-8-12a8 8 0 1 1 16 0Z"/>
    <circle cx="12" cy="10" r="3"/>
  </symbol>

  <symbol id="lock" viewBox="0 0 24 24">
    <rect x="4" y="11" width="16" height="10" rx="2"/>
    <path d="M8 11V7a4 4 0 0 1 8 0v4"/>
  </symbol>

  <symbol id="shield-check" viewBox="0 0 24 24">
    <path d="M12 22s8-3.5 8-10V5l-8-3-8 3v7c0 6.5 8 10 8 10z"/>
    <path d="m9 12 2 2 4-4"/>
  </symbol>

  <symbol id="clock" viewBox="0 0 24 24">
    <circle cx="12" cy="12" r="9"/>
    <path d="M12 7v5l3.5 2"/>
  </symbol>

  <symbol id="free" viewBox="0 0 24 24">
    <circle cx="12" cy="12" r="9"/>
    <path d="M14.8 9.2A2.6 2.6 0 0 0 12.4 8c-1.6 0-2.8.9-2.8 2.1 0 1.2 1.1 1.7 2.6 2 1.5.3 2.6.9 2.6 2 0 1.2-1.2 2.1-2.8 2.1a2.6 2.6 0 0 1-2.4-1.3"/>
    <path d="M12 6.5v11"/>
  </symbol>

  <symbol id="home" viewBox="0 0 24 24">
    <path d="m3 10.5 9-7.5 9 7.5"/>
    <path d="M5 9V21h14V9"/>
    <path d="M9.5 21v-6h5v6"/>
  </symbol>

  <symbol id="tree" viewBox="0 0 24 24">
    <path d="M12 2 6.5 10h3L5 16h14l-4.5-6h3L12 2z"/>
    <path d="M12 16v6"/>
  </symbol>

  <symbol id="accessibility" viewBox="0 0 24 24">
    <circle cx="16" cy="4" r="1"/>
    <path d="m18 19 1-7-6 1"/>
    <path d="m5 8 3-3 5.5 3-2.36 3.5"/>
    <path d="M4.24 14.5a5 5 0 0 0 6.88 6"/>
    <path d="M13.76 17.5a5 5 0 0 0-5.24-6.5"/>
  </symbol>

  <symbol id="usb" viewBox="0 0 24 24">
    <circle cx="10" cy="7" r="1"/>
    <circle cx="4" cy="20" r="1"/>
    <path d="M4.7 19.3 19 5"/>
    <path d="m21 3-3 1 2 2Z"/>
    <path d="M9.26 7.68 5 12l2 5"/>
    <path d="m10 14 5 2 3.5-3.5"/>
    <path d="m18 12 1-1 1 1-1 1Z"/>
  </symbol>

  <symbol id="check" viewBox="0 0 24 24">
    <path d="M20 6 9 17l-5-5"/>
  </symbol>

  <symbol id="check-circle" viewBox="0 0 24 24">
    <circle cx="12" cy="12" r="9"/>
    <path d="m8.5 12 2.5 2.5 5-5"/>
  </symbol>

  <symbol id="alert" viewBox="0 0 24 24">
    <path d="m21.73 18-8-14a2 2 0 0 0-3.48 0l-8 14A2 2 0 0 0 4 21h16a2 2 0 0 0 1.73-3Z"/>
    <path d="M12 9v4"/>
    <path d="M12 17h.01"/>
  </symbol>

  <symbol id="users" viewBox="0 0 24 24">
    <path d="M16 21v-2a4 4 0 0 0-4-4H6a4 4 0 0 0-4 4v2"/>
    <circle cx="9" cy="7" r="4"/>
    <path d="M22 21v-2a4 4 0 0 0-3-3.87"/>
    <path d="M16 3.13a4 4 0 0 1 0 7.75"/>
  </symbol>

  <symbol id="search" viewBox="0 0 24 24">
    <circle cx="11" cy="11" r="7"/>
    <path d="m21 21-4.35-4.35"/>
  </symbol>

  <symbol id="locate" viewBox="0 0 24 24">
    <path d="M12 2v3"/>
    <path d="M12 19v3"/>
    <path d="M2 12h3"/>
    <path d="M19 12h3"/>
    <circle cx="12" cy="12" r="7"/>
    <circle cx="12" cy="12" r="2"/>
  </symbol>

  <symbol id="github" viewBox="0 0 24 24">
    <path d="M15 22v-4a4.8 4.8 0 0 0-1-3.5c3 0 6-2 6-5.5.08-1.25-.27-2.48-1-3.5.28-1.15.28-2.35 0-3.5 0 0-1 0-3 1.5-2.64-.5-5.36-.5-8 0C6 2 5 2 5 2c-.3 1.15-.3 2.35 0 3.5A5.403 5.403 0 0 0 4 9c0 3.5 3 5.5 6 5.5-.39.49-.68 1.05-.85 1.65-.17.6-.22 1.23-.15 1.85v4"/>
    <path d="M9 18c-4.51 2-5-2-7-2"/>
  </symbol>

  <symbol id="wifi" viewBox="0 0 24 24">
    <path d="M2 8.82a15 15 0 0 1 20 0"/>
    <path d="M5 13a10 10 0 0 1 14 0"/>
    <path d="M8.5 16.5a5 5 0 0 1 7 0"/>
    <path d="M12 20h.01"/>
  </symbol>

  <symbol id="info" viewBox="0 0 24 24">
    <circle cx="12" cy="12" r="9"/>
    <path d="M12 16v-4"/>
    <path d="M12 8h.01"/>
  </symbol>

  <symbol id="arrow-right" viewBox="0 0 24 24">
    <path d="M5 12h14"/>
    <path d="m12 5 7 7-7 7"/>
  </symbol>

  <symbol id="menu" viewBox="0 0 24 24">
    <path d="M4 6h16"/>
    <path d="M4 12h16"/>
    <path d="M4 18h16"/>
  </symbol>

  <symbol id="close" viewBox="0 0 24 24">
    <path d="M18 6 6 18"/>
    <path d="m6 6 12 12"/>
  </symbol>
</svg>
